<svg width="263" height="275" viewBox="0 0 263 275" fill="none" xmlns="http://www.w3.org/2000/svg">
<path d="M261.191 98.8225C263.069 105.721 263.297 112.917 261.858 119.906C260.419 126.895 257.349 133.507 252.863 139.278C246.165 147.735 236.617 154.059 230.67 162.964C217.817 182.191 224.716 208.446 212.928 228.252C203.074 244.821 182.659 252.961 163.704 259.947C148.819 265.429 133.785 270.945 118.008 273.154C102.23 275.363 85.2611 273.962 71.5894 266.347C60.3143 260.085 52.0309 250.158 44.3801 240.244C25.5733 215.853 8.57488 189.295 2.7996 159.789C-2.97568 130.283 4.22853 97.1863 27.9102 76.7722C39.4384 66.8309 54.539 59.9756 62.6735 47.473C71.2099 34.356 71.329 16.0544 84.5987 6.91396C89.4958 3.53807 95.5837 1.97093 101.627 1.22534C116.176 -0.511842 130.942 2.12312 143.758 8.74343C156.76 15.5021 167.432 26.2442 181.595 30.5659C199.926 36.1648 223.451 31.8638 235.634 48.4326C245.421 61.7567 256.845 83.303 261.191 98.8225Z" fill="#F2F5F9"/>
</svg>
