<svg width="374" height="391" viewBox="0 0 374 391" fill="none" xmlns="http://www.w3.org/2000/svg">
<path d="M371.715 140.301C374.397 150.148 374.722 160.419 372.668 170.394C370.613 180.37 366.229 189.807 359.822 198.045C350.256 210.116 336.62 219.142 328.127 231.853C309.772 259.296 319.625 296.77 302.789 325.04C288.716 348.69 259.562 360.307 232.491 370.279C211.234 378.103 189.764 385.976 167.231 389.13C144.698 392.283 120.465 390.283 100.94 379.414C84.8379 370.476 73.0082 356.307 62.082 342.157C35.2234 307.343 10.9476 269.435 2.69975 227.32C-5.54807 185.205 4.74045 137.966 38.5608 108.828C55.0245 94.6389 76.5901 84.854 88.2072 67.0088C100.398 48.2866 100.568 22.1641 119.519 9.1177C126.513 4.29919 135.207 2.06237 143.837 0.998162C164.615 -1.48137 185.703 2.27959 204.006 11.729C222.574 21.3758 237.816 36.7083 258.042 42.8768C284.221 50.8683 317.818 44.7293 335.217 68.3785C349.193 87.3963 365.508 118.15 371.715 140.301Z" fill="#F2F5F9"/>
</svg>
