<svg width="323" height="315" viewBox="0 0 323 315" fill="none" xmlns="http://www.w3.org/2000/svg">
<path fill-rule="evenodd" clip-rule="evenodd" d="M131.935 50.8899C138.411 54.5164 144.774 56.2686 147.76 55.5533C155.25 53.7597 155.938 28.3038 150.143 18.2682C144.349 8.23272 114.558 3.85859 113.057 23.7422C112.536 30.6431 115.654 36.8018 120.262 41.8271L112 77.6074H136L131.935 50.8899Z" fill="#F7C2B2"/>
<path fill-rule="evenodd" clip-rule="evenodd" d="M118.418 46.303C115.406 33.8518 106.825 25.3643 108.135 19.7992C109.446 14.234 115.121 12.8776 115.121 12.8776C115.121 12.8776 118.057 1.84442 134.056 3.49192C145.099 2.46324 154.22 -1.01006 161.797 1.84456C167.477 5.9718 164.443 19.3421 151.823 21.7561C147.946 21.7561 147.046 23.5939 140.576 25.8256C137.496 26.8877 136.17 32.4131 136.17 32.4131H133.246C133.246 32.4131 128.989 25.856 124.851 27.594C120.713 29.332 122.97 36.0372 122.97 36.0372L121.529 46.303H118.418Z" fill="#191847"/>
<path d="M29 233.747C29 211.656 46.9086 193.747 69 193.747H136C158.091 193.747 176 211.656 176 233.747V268.958C176 291.049 158.091 308.958 136 308.958H69C46.9086 308.958 29 291.049 29 268.958V233.747Z" fill="#997659"/>
<path fill-rule="evenodd" clip-rule="evenodd" d="M275.159 304.312C255.443 281.943 242.103 265.359 235.138 254.562C223.213 236.073 213.453 219.621 210.373 213.337C203.028 198.351 227.282 191.334 232.771 198.324C241.079 208.903 258.822 242.194 286 298.196L275.159 304.312Z" fill="#F6C2B2"/>
<path fill-rule="evenodd" clip-rule="evenodd" d="M254.193 290.482C243.325 294.579 231.158 289.39 226.592 278.71L198.065 211.992C190.217 196.348 228.116 186.065 233.883 193.346C241.946 203.523 256.844 232.157 268.014 253.807C274.752 266.869 267.946 285.299 254.193 290.482Z" fill="#33B074"/>
<path fill-rule="evenodd" clip-rule="evenodd" d="M137.033 280.598C144.181 270.911 170.179 238.321 184.339 224.837C188.408 220.962 192.379 217.242 196.134 213.777C207.296 203.475 229.524 220.79 218.382 230.173C190.635 253.541 150.151 285.086 146.769 287.899C142.028 291.841 132.541 286.686 137.033 280.598Z" fill="#F6C2B2"/>
<path fill-rule="evenodd" clip-rule="evenodd" d="M146.035 280.887C142.027 278.738 136.711 276.868 134.065 280.589C134.005 280.674 133.95 280.757 133.899 280.837C131.596 284.543 133.515 289.101 137.361 291.163C146.32 295.97 162.111 304.44 171.634 309.548C176.371 312.089 185.676 309.375 181.304 306.316C179.919 305.348 178.71 304.489 177.732 303.789C175.918 302.49 174.326 300.941 172.974 299.209L159.794 282.338C158.554 280.751 156.156 280.459 154.44 281.686C153.662 282.243 152.7 282.513 151.753 282.385C150.137 282.167 147.573 281.712 146.035 280.887Z" fill="#AFB9C5"/>
<path fill-rule="evenodd" clip-rule="evenodd" d="M275.537 301.604C270.887 301.604 265 302.548 265 307.198C265 311.487 268.989 314.533 273.278 314.533C283.648 314.533 302.308 314.533 313.373 314.533C318.708 314.533 325.065 307.844 319.765 307.241C318.03 307.044 316.51 306.861 315.28 306.708C313.03 306.428 310.835 305.83 308.74 304.962L288.12 296.421C286.24 295.642 284.082 296.505 283.257 298.365C282.875 299.225 282.186 299.914 281.304 300.241C279.788 300.803 277.316 301.604 275.537 301.604Z" fill="#AFB9C5"/>
<path fill-rule="evenodd" clip-rule="evenodd" d="M185.014 216.33C184.916 216.288 184.817 216.272 184.712 216.256C181.839 215.821 138.598 209.269 123.581 206.809C94.8456 202.101 85.9228 187.992 90.1602 157.547C90.3637 156.085 91.6255 155.005 93.1015 155.005L144.539 155.005C144.801 155.005 145.019 155.027 145.271 155.099C157.192 158.519 234.005 190.359 235.154 190.835C235.191 190.85 235.186 190.849 235.222 190.866C244.689 195.284 242.918 208.201 241.18 212.462C241.084 212.695 202.713 273.72 194.52 286.75C193.655 288.126 191.878 288.52 190.479 287.692L151.537 264.642C149.943 263.699 149.576 261.552 150.766 260.133L184.745 219.621C184.878 219.462 184.995 219.291 185.081 219.103C185.387 218.433 186.027 216.758 185.014 216.33Z" fill="#36C982"/>
<path fill-rule="evenodd" clip-rule="evenodd" d="M232.082 112.851L209.725 143.191L197.306 130.074L221.996 110.462C224.998 106.492 227.331 102.992 229.155 100.255C232.079 95.8692 233.695 93.4441 234.665 94.1861C235.98 95.1917 235.403 96.6961 234.872 98.0843C234.448 99.1909 234.052 100.224 234.665 100.871C235.557 101.813 237.866 100.578 240.795 99.0109C242.404 98.1503 244.199 97.1895 246.05 96.4343C251.272 94.3035 250.545 97.0314 249.664 98.5482C245.335 103.378 239.475 108.146 232.082 112.851ZM70 137.132L49.5083 133.355C35.6109 167.388 27.3256 186.038 24.6523 189.304C22.692 191.7 10.6026 197.87 2.41982 201.165C-0.864649 202.488 -0.159448 205.067 0.803878 205.892C6.88024 211.096 12.5292 209.272 18.6783 207.286C20.4585 206.711 22.2806 206.123 24.1672 205.688C29.0502 204.561 30.5361 206.894 31.9404 209.099C33.1837 211.051 34.363 212.903 37.7793 212.164C37.6239 211.541 37.433 210.843 37.227 210.09C35.8952 205.221 33.9312 198.04 36.845 193.868C38.3404 191.727 49.3921 172.815 70 137.132Z" fill="#F6C2B2"/>
<path d="M227.759 110.075C227.21 111.23 227.167 112.537 227.638 113.719C228.109 114.901 229.058 115.865 230.283 116.408C233.493 117.869 236.989 118.713 240.562 118.889C242.991 119.413 246.331 117.657 248.04 114.355C249.748 111.054 258.292 94.9125 261.805 86.2667C262.071 85.6435 262.197 84.9769 262.176 84.3075C262.155 83.638 261.988 82.9798 261.684 82.373C261.38 81.7663 260.945 81.2236 260.408 80.7781C259.87 80.3327 259.24 79.9938 258.556 79.7822L248.184 77.6946C246.956 77.3381 245.628 77.4155 244.455 77.9119C243.283 78.4083 242.348 79.2888 241.831 80.3845L227.759 110.075Z" fill="#3D3D54"/>
<path d="M258.773 84.5698L243.464 114.64C243.263 114.994 242.94 115.274 242.546 115.434C242.151 115.594 241.711 115.624 241.296 115.521L231.831 112.382C231.47 112.262 231.075 112.208 230.759 112.003C230.601 111.901 230.471 111.766 230.377 111.61C230.283 111.453 230.229 111.279 230.219 111.1C230.208 110.921 230.242 110.742 230.317 110.577L244.667 81.4217C244.867 81.0682 245.191 80.7884 245.585 80.6283C245.979 80.4683 246.42 80.4376 246.835 80.5413L257.836 82.9227C258.026 82.9542 258.206 83.0256 258.363 83.1314C258.519 83.2372 258.647 83.3747 258.737 83.5335C258.827 83.6922 258.877 83.868 258.884 84.0476C258.89 84.2272 258.852 84.4058 258.773 84.5698Z" fill="#C3DBEE"/>
<path fill-rule="evenodd" clip-rule="evenodd" d="M125.606 67.6797C125.609 64.462 128.017 61.7508 131.208 61.2423C133.191 60.9262 135.217 61.4937 136.591 62.9334C153.811 80.984 161.374 118.72 173.414 123.898C184.125 128.505 192.545 123.427 208.786 117.49C212.254 116.222 216.093 116.797 219.074 118.91C224.644 122.858 225.509 130.846 220.278 135.361C198.025 154.57 169.359 162.682 155.66 154.99C132.138 141.784 125.581 96.7301 125.606 67.6797Z" fill="#446EC1"/>
<path fill-rule="evenodd" clip-rule="evenodd" d="M88 163.086C88 163.086 140.008 163.086 164.511 163.086C168.008 163.086 167.349 158.396 166.843 156.029C161.011 128.713 138.241 99.2667 138.241 60.3824L116.172 57.167C97.9175 84.4444 91.6048 118.028 88 163.086Z" fill="#F2F6F9"/>
<path fill-rule="evenodd" clip-rule="evenodd" d="M115.722 57.167C115.084 57.167 114.453 57.3352 113.901 57.6548C67.7906 84.3421 38.8291 124.682 27.0162 178.674C25.7751 184.346 29.6067 189.809 35.3198 190.849C38.8804 191.497 42.5387 190.3 44.8793 187.539C54.0785 176.69 64.9533 160.909 77.5037 140.195C77.9187 139.51 79.0214 139.991 78.8032 140.762C72.5262 162.927 90.594 182.598 113.631 182.598C129.544 182.598 143.668 172.687 143.271 156.779C142.436 123.313 129.228 76.3688 124.87 61.717C124.056 58.982 121.546 57.167 118.693 57.167C118.547 57.167 118.402 57.1718 118.258 57.1813C117.42 57.2365 116.562 57.167 115.722 57.167Z" fill="#5079CA"/>
</svg>
